<svg fill-opacity="context-fill-opacity" fill="context-fill light-dark(black, white)" height="200px" width="200px" version="1.1" id="Layer_1" xmlns="http://www.w3.org/2000/svg" xmlns:xlink="http://www.w3.org/1999/xlink" viewBox="0 0 502.688 502.688" xml:space="preserve"><g id="SVGRepo_bgCarrier" stroke-width="0"></g><g id="SVGRepo_tracerCarrier" stroke-linecap="round" stroke-linejoin="round"></g><g id="SVGRepo_iconCarrier"> <g> <g> <path d="M491.401,12.059c-23.467-23.467-70.4-9.6-145.067,42.667c-30.933-16-65.067-25.6-101.333-25.6 c-57.6,0-112,22.4-152.533,62.933c-68.267,68.267-81.067,170.667-38.4,252.8c-69.333,99.2-57.6,131.2-42.667,145.067 c7.467,7.467,18.133,11.733,29.867,11.733c23.467,0,54.4-13.867,98.133-40.533c7.467-5.333,16-10.667,24.533-17.067 c25.6,10.667,53.333,16,81.067,16c57.6,0,112-22.4,152.533-62.933c62.933-62.933,78.933-155.733,46.933-233.6 c6.4-8.533,11.733-17.067,18.133-25.6C504.201,73.925,512.734,33.392,491.401,12.059z M41.267,458.992 c1.067-8.533,7.467-32,37.333-77.867c4.267,5.333,8.533,10.667,13.867,16c8.533,8.533,18.133,16,27.733,23.467 C81.801,446.192,53.001,458.992,41.267,458.992z M156.467,394.992c-11.733-7.467-23.467-16-34.133-26.667 c-68.267-68.267-68.267-178.133,0-246.4c32-33.067,75.733-51.2,122.667-51.2s90.667,18.133,123.733,50.133 c10.667,10.667,20.267,22.4,26.667,35.2c-27.733,36.267-66.133,80-113.067,126.933 C235.401,329.925,192.734,367.259,156.467,394.992z M368.734,367.259c-33.067,33.067-77.867,52.267-123.733,52.267 c-13.867,0-27.733-2.133-41.6-5.333c36.267-28.8,74.667-62.933,112-100.267c37.333-37.333,70.4-74.667,99.2-110.933 C428.467,260.592,413.534,322.459,368.734,367.259z M422.067,120.858c-7.467-10.667-14.933-20.267-24.533-28.8 c-4.267-4.267-9.6-8.533-13.867-12.8c44.8-29.867,68.267-37.333,76.8-37.333C460.467,53.659,448.734,81.392,422.067,120.858z"></path></g></g></g></svg>