<?xml version="1.0" encoding="UTF-8" standalone="no"?>
<svg
   version="1.1"
   viewBox="0 0 16 16"
   id="svg7"
   sodipodi:docname="document-open-recent.svg"
   inkscape:version="1.2.2 (b0a8486541, 2022-12-01)"
   xmlns:inkscape="http://www.inkscape.org/namespaces/inkscape"
   xmlns:sodipodi="http://sodipodi.sourceforge.net/DTD/sodipodi-0.dtd"
   xmlns:xlink="http://www.w3.org/1999/xlink"
   xmlns="http://www.w3.org/2000/svg"
   xmlns:svg="http://www.w3.org/2000/svg">
  <sodipodi:namedview
     id="namedview9"
     pagecolor="#ffffff"
     bordercolor="#000000"
     borderopacity="0.25"
     inkscape:showpageshadow="2"
     inkscape:pageopacity="0.0"
     inkscape:pagecheckerboard="0"
     inkscape:deskcolor="#d1d1d1"
     showgrid="false"
     inkscape:zoom="14.75"
     inkscape:cx="4.8135593"
     inkscape:cy="8.0338983"
     inkscape:window-width="1920"
     inkscape:window-height="1002"
     inkscape:window-x="0"
     inkscape:window-y="0"
     inkscape:window-maximized="1"
     inkscape:current-layer="svg7" />
  <defs
     id="defs3">
    <linearGradient
       inkscape:collect="always"
       id="linearGradient866">
      <stop
         style="stop-color:#2a7fff;stop-opacity:1"
         offset="0"
         id="stop862" />
      <stop
         style="stop-color:#ffd42a;stop-opacity:1"
         offset="1"
         id="stop864" />
    </linearGradient>
    <style
       type="text/css"
       id="current-color-scheme">
            .ColorScheme-Text {
                color:#eff0f1;
            }
        </style>
    <linearGradient
       inkscape:collect="always"
       xlink:href="#linearGradient866"
       id="linearGradient868"
       x1="3"
       y1="14"
       x2="13"
       y2="2"
       gradientUnits="userSpaceOnUse" />
  </defs>
  <path
     style="fill:url(#linearGradient868);fill-opacity:1;stroke:none"
     d="m9.0000002 9v3h1.9999998v-1h-1v-2zm0.9999998-1c-1.6619998 0-2.9999998 1.338-2.9999998 3s1.338 3 2.9999998 3c1.662 0 3-1.338 3-3s-1.338-3-3-3zm0 1a2 2 0 0 1 2 2 2 2 0 0 1-2 2 2 2 0 0 1-1.9999998-2 2 2 0 0 1 1.9999998-2zm-7-7v12h4v-1h-3v-10h5v3h3v2h1v-3l-3-3h-1z"
     class="ColorScheme-Text"
     id="path5" />
</svg>
